<?xml version="1.0" standalone="no"?><!DOCTYPE svg PUBLIC "-//W3C//DTD SVG 1.1//EN" "http://www.w3.org/Graphics/SVG/1.1/DTD/svg11.dtd"><svg t="1755171846689" class="icon" viewBox="0 0 1024 1024" version="1.1" xmlns="http://www.w3.org/2000/svg" p-id="1633" xmlns:xlink="http://www.w3.org/1999/xlink" width="200" height="200"><path d="M640 896H384l-6.702-6.702A49.636 49.636 0 0 1 368 832a71.556 71.556 0 0 1 0-64h288a71.556 71.556 0 0 1 0 64 49.636 49.636 0 0 1-9.298 57.298z" fill="#EAE9E4" p-id="1634"></path><path d="M448 832a16 16 0 0 1-16 16h-68.86a50.116 50.116 0 0 1 4.86-16 72.274 72.274 0 0 1-5.76-16H432a16 16 0 0 1 16 16zM656 832a50.116 50.116 0 0 1 4.86 16H512a16 16 0 0 1 0-32h149.76a72.274 72.274 0 0 1-5.76 16z" fill="#DCDBD6" p-id="1635"></path><path d="M816 357.9a309.434 309.434 0 1 0-566.836 171.77c14.168 21.188 28.142 42.506 41.256 64.364l28.46 47.434a399.152 399.152 0 0 1 47.2 118.01L368 768h288l5.332-23.776a399.212 399.212 0 0 1 32.468-91.152 1467.6 1467.6 0 0 1 74.224-129.622A307.936 307.936 0 0 0 816 357.9z" fill="#5EBEF7" p-id="1636"></path><path d="M583.9 58.22a42.358 42.358 0 0 1-42.36 41.82h-80.1A32.23 32.23 0 0 1 429.2 67.8a31.8 31.8 0 0 1 1.62-10.1 313.27 313.27 0 0 1 73.54-9.22 309.562 309.562 0 0 1 79.54 9.74z" fill="#B5CF7F" p-id="1637"></path><path d="M661.28 317.62a38.684 38.684 0 0 1-38.68 38.68h-180.5a25.78 25.78 0 1 0 0 51.56h12.9a38.68 38.68 0 0 1 0 77.36H224.46a311 311 0 0 1 30.6-308.22l277.3-1.2a25.78 25.78 0 1 1 0 51.56h-38.68a25.8 25.8 0 0 0 0 51.58h128.92a38.684 38.684 0 0 1 38.68 38.68zM797.8 253.14h-75.1a22.738 22.738 0 0 1-22.74-22.74 28.816 28.816 0 0 0-28.82-28.82h-9.86a25.8 25.8 0 0 1 0-51.58h74.46a308.844 308.844 0 0 1 62.06 103.14zM811.72 409.48a307.15 307.15 0 0 1-43.7 113.96q-9.3 14.64-18.34 29.46h-16.28a20.554 20.554 0 0 1-20.54-20.56 20.562 20.562 0 0 0-20.68-20.54l-18.02 0.1c-0.24 0-0.48 0.02-0.72 0.02a25.078 25.078 0 0 1-25.06-25.08 25.778 25.778 0 0 0-25.78-25.8 25.78 25.78 0 1 1 0-51.56z" fill="#5EBEF7" p-id="1638"></path><path d="M661.28 317.62a38.684 38.684 0 0 1-38.68 38.68h-180.5a25.78 25.78 0 1 0 0 51.56h12.9a38.68 38.68 0 0 1 0 77.36H224.46a311 311 0 0 1 30.6-308.22l277.3-1.2a25.78 25.78 0 1 1 0 51.56h-38.68a25.8 25.8 0 0 0 0 51.58h128.92a38.684 38.684 0 0 1 38.68 38.68zM811.72 409.48a307.15 307.15 0 0 1-43.7 113.96q-9.3 14.64-18.34 29.46h-16.28a20.554 20.554 0 0 1-20.54-20.56 20.562 20.562 0 0 0-20.68-20.54l-18.02 0.1c-0.24 0-0.48 0.02-0.72 0.02a25.078 25.078 0 0 1-25.06-25.08 25.778 25.778 0 0 0-25.78-25.8 25.78 25.78 0 1 1 0-51.56zM797.8 253.14h-75.1a22.738 22.738 0 0 1-22.74-22.74 28.816 28.816 0 0 0-28.82-28.82h-9.86a25.8 25.8 0 0 1 0-51.58h74.46a308.844 308.844 0 0 1 62.06 103.14zM571.032 551.296H484a41.904 41.904 0 0 0-41.9 41.904 9.67 9.67 0 0 1-9.67 9.67h-9.668a32.234 32.234 0 0 0-32.234 32.232 32.234 32.234 0 0 0 32.234 32.234h80.1a42.384 42.384 0 0 0 42.384-42.384 22.08 22.08 0 0 1 22.08-22.082h3.706a25.786 25.786 0 0 0 25.786-25.786 25.786 25.786 0 0 0-25.786-25.788z" fill="#B5CF7F" p-id="1639"></path><path d="M384 896l24.02 30.024A133.158 133.158 0 0 0 512 976a133.158 133.158 0 0 0 103.98-49.976L640 896z" fill="#DCDBD6" p-id="1640"></path><path d="M127.988 224a15.946 15.946 0 0 1-7.144-1.694l-64-32a16 16 0 0 1 14.312-28.62l64 32A16 16 0 0 1 127.988 224zM64.012 480a16 16 0 0 1-7.168-30.314l64-32a16 16 0 0 1 14.312 28.62l-64 32a15.946 15.946 0 0 1-7.144 1.694zM128 336H48a16 16 0 0 1 0-32h80a16 16 0 0 1 0 32zM896.012 224a16 16 0 0 1-7.168-30.314l64-32a16 16 0 1 1 14.312 28.62l-64 32a15.946 15.946 0 0 1-7.144 1.694zM959.988 480a15.946 15.946 0 0 1-7.144-1.694l-64-32a16 16 0 0 1 14.312-28.62l64 32A16 16 0 0 1 959.988 480zM976 336h-80a16 16 0 0 1 0-32h80a16 16 0 0 1 0 32z" fill="#FFC864" p-id="1641"></path></svg>